<svg xmlns="http://www.w3.org/2000/svg" xmlns:xlink="http://www.w3.org/1999/xlink" version="1.1" x="0px" y="0px" viewBox="0 0 100 125" enable-background="new 0 0 100 100" xml:space="preserve"><path d="M69.187,50l3.935-6.806c0.269-0.465,0.269-1.037,0.001-1.501l-4.368-7.563c-0.269-0.464-0.763-0.75-1.299-0.75  c-0.001,0-0.001,0-0.001,0l-7.861,0.005l-3.925-6.811c-0.269-0.465-0.764-0.751-1.3-0.751h-8.735c-0.536,0-1.032,0.286-1.3,0.751  l-3.926,6.811l-7.86-0.005h-0.001c-0.535,0-1.031,0.286-1.299,0.75l-4.367,7.563c-0.27,0.464-0.269,1.036,0,1.501L30.815,50  l-3.936,6.805c-0.269,0.465-0.27,1.037,0,1.502l4.367,7.563c0.268,0.465,0.764,0.75,1.299,0.75l0,0l7.861-0.004l3.926,6.811  c0.268,0.465,0.764,0.752,1.3,0.752h8.735c0.536,0,1.031-0.287,1.3-0.752l3.925-6.811l7.861,0.004c0,0,0,0,0.001,0  c0.536,0,1.03-0.285,1.299-0.75l4.368-7.563c0.268-0.465,0.268-1.037-0.001-1.502L69.187,50z M66.589,63.619l-6.996-0.004  l-0.711-1.234c-0.414-0.719-1.33-0.961-2.049-0.551c-0.719,0.414-0.965,1.332-0.551,2.049l0.713,1.236l-3.494,6.063h-7.002  l-3.493-6.063l0.712-1.236c0.414-0.717,0.168-1.635-0.549-2.049c-0.717-0.41-1.635-0.168-2.049,0.551l-0.713,1.234l-6.996,0.004  l-3.5-6.063l3.502-6.057l1.426-0.002c0.829,0,1.5-0.672,1.5-1.5c0-0.828-0.672-1.499-1.5-1.499l0,0L33.413,48.5l-3.502-6.057  l3.5-6.063l6.996,0.005l0.713,1.233c0.277,0.482,0.781,0.751,1.301,0.751c0.254,0,0.512-0.064,0.748-0.2  c0.717-0.414,0.963-1.332,0.549-2.049l-0.712-1.235l3.493-6.062h7.002l3.494,6.062l-0.713,1.235  c-0.414,0.717-0.168,1.635,0.551,2.049c0.236,0.136,0.493,0.2,0.748,0.2c0.518,0,1.022-0.269,1.301-0.751l0.711-1.233l6.996-0.005  l3.502,6.063l-3.502,6.056L65.161,48.5c-0.829,0-1.5,0.672-1.5,1.501c0,0.828,0.672,1.5,1.5,1.5l0,0l1.427-0.002l3.503,6.059  L66.589,63.619z M61.021,48.502L61.021,48.502l-1.426,0.001l-3.494-6.06l0.712-1.235c0.414-0.718,0.168-1.635-0.55-2.049  c-0.715-0.414-1.635-0.168-2.049,0.549l-0.713,1.234h-7.002l-0.712-1.234c-0.415-0.717-1.331-0.963-2.049-0.549  s-0.964,1.331-0.55,2.049l0.713,1.235l-3.491,6.051l-1.431,0.001c-0.828,0-1.5,0.672-1.499,1.501c0.001,0.828,0.672,1.5,1.5,1.5  h0.001l1.425-0.002l3.495,6.061l-0.713,1.236c-0.414,0.717-0.168,1.635,0.55,2.049c0.235,0.137,0.493,0.201,0.748,0.201  c0.519,0,1.022-0.27,1.301-0.75l0.714-1.236h7l0.713,1.236c0.277,0.48,0.782,0.75,1.301,0.75c0.254,0,0.512-0.064,0.748-0.201  c0.718-0.414,0.964-1.332,0.55-2.049l-0.714-1.236l3.492-6.051l1.43-0.002c0.829,0,1.5-0.672,1.5-1.5  C62.521,49.173,61.849,48.502,61.021,48.502z M53.502,56.055h-7.003l-3.493-6.056l3.493-6.056h7.003l3.493,6.056L53.502,56.055z"/><text x="0" y="115" fill="#000000" font-size="5px" font-weight="bold" font-family="'Helvetica Neue', Helvetica, Arial-Unicode, Arial, Sans-serif">Created by Sergey Demushkin</text><text x="0" y="120" fill="#000000" font-size="5px" font-weight="bold" font-family="'Helvetica Neue', Helvetica, Arial-Unicode, Arial, Sans-serif">from the Noun Project</text></svg>