<svg xmlns="http://www.w3.org/2000/svg" xmlns:xlink="http://www.w3.org/1999/xlink" version="1.1" x="0px" y="0px" viewBox="0 0 48 60" enable-background="new 0 0 48 48" xml:space="preserve"><g><g><path fill="#000000" d="M13.2,29c-0.3,0-0.7-0.1-1-0.3L1.5,22.6c-0.6-0.3-1-1-1-1.7V8.6c0-0.7,0.4-1.4,1-1.7l10.8-6.1    c0.6-0.3,1.3-0.3,1.9,0L25,6.9c0.6,0.3,1,1,1,1.7v12.3c0,0.7-0.4,1.4-1,1.7l-10.8,6.1C13.9,28.9,13.6,29,13.2,29z M4.4,19.7l8.8,5    l8.8-5v-10l-8.8-5l-8.8,5V19.7z"/></g><g><path fill="#000000" d="M34.8,29c-0.3,0-0.7-0.1-1-0.3L23,22.6c-0.6-0.3-1-1-1-1.7V8.6c0-0.7,0.4-1.4,1-1.7l10.8-6.1    c0.6-0.3,1.3-0.3,1.9,0l10.8,6.1c0.6,0.3,1,1,1,1.7v12.3c0,0.7-0.4,1.4-1,1.7l-10.8,6.1C35.4,28.9,35.1,29,34.8,29z M26,19.7    l8.8,5l8.8-5v-10l-8.8-5l-8.8,5V19.7z"/></g><g><path fill="#000000" d="M24,47.5c-0.3,0-0.7-0.1-1-0.3l-10.8-6.1c-0.6-0.3-1-1-1-1.7V27.1c0-0.7,0.4-1.4,1-1.7L23,19.3    c0.6-0.3,1.3-0.3,1.9,0l10.8,6.1c0.6,0.3,1,1,1,1.7v12.3c0,0.7-0.4,1.4-1,1.7L25,47.2C24.7,47.4,24.3,47.5,24,47.5z M15.2,38.3    l8.8,5l8.8-5v-10l-8.8-5l-8.8,5V38.3z"/></g></g><text x="0" y="63" fill="#000000" font-size="5px" font-weight="bold" font-family="'Helvetica Neue', Helvetica, Arial-Unicode, Arial, Sans-serif">Created by Vectors Market</text><text x="0" y="68" fill="#000000" font-size="5px" font-weight="bold" font-family="'Helvetica Neue', Helvetica, Arial-Unicode, Arial, Sans-serif">from the Noun Project</text></svg>