<svg xmlns="http://www.w3.org/2000/svg" xmlns:xlink="http://www.w3.org/1999/xlink" version="1.1" x="0px" y="0px" viewBox="0 0 90 112.5" enable-background="new 0 0 90 90" xml:space="preserve"><path d="M57.262,1.954H32.736c-0.518,0-0.938,0.446-0.938,0.997v2.536h26.404V2.951C58.201,2.4,57.781,1.954,57.262,1.954z"/><path d="M58.484,15.568v-5.21h0.254c0.848,0,1.533-0.686,1.533-1.532s-0.686-1.532-1.533-1.532H31.259  c-0.847,0-1.532,0.686-1.532,1.532s0.686,1.532,1.532,1.532h0.256v5.21c0,0-8.58,2.299-7.814,9.193L26,81.381  c0,0-0.767,6.205,3.831,6.666h14.71h0.919h14.71c4.598-0.461,3.83-6.666,3.83-6.666l2.299-56.62  C67.064,17.867,58.484,15.568,58.484,15.568z M61.471,70.686H28.53L27.09,35.201h35.82L61.471,70.686z"/><path d="M56.268,50.355c-1.008-1.014-3.881-2.174-6.451-3.068c0.949-0.783,1.525-1.801,1.525-2.917c0-2.481-2.84-4.492-6.343-4.492  c-3.501,0-6.341,2.011-6.341,4.492c0,1.111,0.571,2.125,1.513,2.909c-2.563,0.881-5.414,2.02-6.422,3.023  c-2.1,2.09-2.108,5.498-0.019,7.6c1.017,1.021,2.368,1.582,3.81,1.582c0.797,0,1.567-0.178,2.27-0.506  c0.981,2.375,2.501,4.422,3.657,5.971c0.307,0.41,0.586,0.783,0.814,1.113l0.703,1.01l0.704-1.01  c0.229-0.328,0.508-0.701,0.814-1.111c1.154-1.545,2.668-3.586,3.652-5.955c0.711,0.338,1.494,0.523,2.307,0.523  c1.43,0,2.777-0.557,3.789-1.566C58.35,55.865,58.359,52.455,56.268,50.355z M44.458,51.293c0.364-0.012,0.729-0.012,1.094,0  c0.32,0.939,0.676,1.926,1.049,2.854c-1.064-0.125-2.141-0.125-3.207,0C43.773,53.219,44.134,52.232,44.458,51.293z M34.947,56.691  c-1.424-1.43-1.418-3.75,0.012-5.172c1.011-1.006,5.438-2.574,8.789-3.588c-1.028,3.346-2.617,7.766-3.628,8.771  c-0.691,0.688-1.606,1.066-2.58,1.066C36.558,57.77,35.637,57.387,34.947,56.691z M47.246,60.889  c-1.479-0.406-3.042-0.404-4.518,0.006c-0.481-0.779-0.934-1.615-1.303-2.492c2.31-0.775,4.813-0.777,7.124-0.008  C48.18,59.271,47.727,60.107,47.246,60.889z M55.041,56.738c-0.691,0.688-1.607,1.066-2.58,1.066c-0.98,0-1.902-0.383-2.594-1.076  c-1.006-1.012-2.574-5.439-3.588-8.791c3.346,1.029,7.766,2.617,8.773,3.629C56.475,52.994,56.469,55.316,55.041,56.738z"/><text x="0" y="105" fill="#000000" font-size="5px" font-weight="bold" font-family="'Helvetica Neue', Helvetica, Arial-Unicode, Arial, Sans-serif">Created by Yazmin Alanis</text><text x="0" y="110" fill="#000000" font-size="5px" font-weight="bold" font-family="'Helvetica Neue', Helvetica, Arial-Unicode, Arial, Sans-serif">from the Noun Project</text></svg>